<?xml version="1.0" encoding="UTF-8"?>
<svg xmlns="http://www.w3.org/2000/svg" xmlns:xlink="http://www.w3.org/1999/xlink" width="20px" height="20px" viewBox="0 0 20 20" version="1.1">
<g id="surface1">
<path style=" stroke:none;fill-rule:nonzero;fill:rgb(100%,100%,100%);fill-opacity:1;" d="M 18.375 0.0585938 L 5.875 3.75 C 5.355469 3.914062 5 4.394531 5 4.941406 L 5 15.152344 C 4.589844 15.054688 4.171875 15.003906 3.75 15 C 1.679688 15 0 16.121094 0 17.5 C 0 18.878906 1.679688 20 3.75 20 C 5.820312 20 7.5 18.878906 7.5 17.5 L 7.5 8.371094 L 17.5 5.441406 L 17.5 12.652344 C 17.089844 12.554688 16.671875 12.503906 16.25 12.5 C 14.179688 12.5 12.5 13.621094 12.5 15 C 12.5 16.378906 14.179688 17.5 16.25 17.5 C 18.320312 17.5 20 16.382812 20 15 L 20 1.25 C 20 0.851562 19.808594 0.476562 19.488281 0.242188 C 19.167969 0.0078125 18.753906 -0.0625 18.375 0.0585938 Z M 18.375 0.0585938 "/>
</g>
</svg>
