<?xml version="1.0" encoding="UTF-8"?>
<svg xmlns="http://www.w3.org/2000/svg" xmlns:xlink="http://www.w3.org/1999/xlink" width="20px" height="20px" viewBox="0 0 20 20" version="1.1">
<g id="surface1">
<path style=" stroke:none;fill-rule:nonzero;fill:rgb(100%,100%,100%);fill-opacity:1;" d="M 8.4375 0 L 11.5625 0 C 12.082031 0 12.5 0.417969 12.5 0.9375 L 12.5 7.5 L 15.925781 7.5 C 16.621094 7.5 16.96875 8.339844 16.476562 8.832031 L 10.535156 14.777344 C 10.242188 15.070312 9.761719 15.070312 9.46875 14.777344 L 3.519531 8.832031 C 3.027344 8.339844 3.375 7.5 4.070312 7.5 L 7.5 7.5 L 7.5 0.9375 C 7.5 0.417969 7.917969 0 8.4375 0 Z M 20 14.6875 L 20 19.0625 C 20 19.582031 19.582031 20 19.0625 20 L 0.9375 20 C 0.417969 20 0 19.582031 0 19.0625 L 0 14.6875 C 0 14.167969 0.417969 13.75 0.9375 13.75 L 6.667969 13.75 L 8.582031 15.664062 C 9.367188 16.449219 10.632812 16.449219 11.417969 15.664062 L 13.332031 13.75 L 19.0625 13.75 C 19.582031 13.75 20 14.167969 20 14.6875 Z M 15.15625 18.125 C 15.15625 17.695312 14.804688 17.34375 14.375 17.34375 C 13.945312 17.34375 13.59375 17.695312 13.59375 18.125 C 13.59375 18.554688 13.945312 18.90625 14.375 18.90625 C 14.804688 18.90625 15.15625 18.554688 15.15625 18.125 Z M 17.65625 18.125 C 17.65625 17.695312 17.304688 17.34375 16.875 17.34375 C 16.445312 17.34375 16.09375 17.695312 16.09375 18.125 C 16.09375 18.554688 16.445312 18.90625 16.875 18.90625 C 17.304688 18.90625 17.65625 18.554688 17.65625 18.125 Z M 17.65625 18.125 "/>
</g>
</svg>
