<?xml version="1.0" encoding="UTF-8"?>
<svg xmlns="http://www.w3.org/2000/svg" xmlns:xlink="http://www.w3.org/1999/xlink" width="20px" height="22px" viewBox="0 0 20 22" version="1.1">
<g id="surface1">
<path style=" stroke:none;fill-rule:nonzero;fill:rgb(100%,100%,100%);fill-opacity:1;" d="M 10 9.625 C 9.210938 9.625 8.570312 10.242188 8.570312 11 C 8.570312 11.757812 9.210938 12.375 10 12.375 C 10.789062 12.375 11.429688 11.757812 11.429688 11 C 11.429688 10.242188 10.789062 9.625 10 9.625 Z M 18.570312 1.375 L 1.429688 1.375 C 0.640625 1.375 0 1.992188 0 2.75 L 0 19.25 C 0 20.007812 0.640625 20.625 1.429688 20.625 L 18.570312 20.625 C 19.359375 20.625 20 20.007812 20 19.25 L 20 2.75 C 20 1.992188 19.359375 1.375 18.570312 1.375 Z M 10 17.875 C 6.054688 17.875 2.855469 14.796875 2.855469 11 C 2.855469 7.203125 6.054688 4.125 10 4.125 C 13.945312 4.125 17.144531 7.203125 17.144531 11 C 17.144531 14.796875 13.945312 17.875 10 17.875 Z M 10 17.875 "/>
</g>
</svg>
