<?xml version="1.0" encoding="UTF-8"?>
<svg xmlns="http://www.w3.org/2000/svg" xmlns:xlink="http://www.w3.org/1999/xlink" width="20px" height="20px" viewBox="0 0 20 20" version="1.1">
<g id="surface1">
<path style=" stroke:none;fill-rule:nonzero;fill:rgb(100%,100%,100%);fill-opacity:1;" d="M 10 0.3125 C 4.476562 0.3125 0 4.648438 0 10 C 0 15.351562 4.476562 19.6875 10 19.6875 C 15.523438 19.6875 20 15.351562 20 10 C 20 4.648438 15.523438 0.3125 10 0.3125 Z M 3.546875 10 L 2.257812 10 C 2.257812 5.863281 5.730469 2.5 10 2.5 L 10 3.75 C 6.445312 3.75 3.546875 6.554688 3.546875 10 Z M 10 13.75 C 7.863281 13.75 6.128906 12.070312 6.128906 10 C 6.128906 7.929688 7.863281 6.25 10 6.25 C 12.136719 6.25 13.871094 7.929688 13.871094 10 C 13.871094 12.070312 12.136719 13.75 10 13.75 Z M 10 8.75 C 9.285156 8.75 8.710938 9.308594 8.710938 10 C 8.710938 10.691406 9.285156 11.25 10 11.25 C 10.714844 11.25 11.289062 10.691406 11.289062 10 C 11.289062 9.308594 10.714844 8.75 10 8.75 Z M 10 8.75 "/>
</g>
</svg>
