<?xml version="1.0" encoding="UTF-8"?>
<svg xmlns="http://www.w3.org/2000/svg" xmlns:xlink="http://www.w3.org/1999/xlink" width="20px" height="20px" viewBox="0 0 20 20" version="1.1">
<g id="surface1">
<path style=" stroke:none;fill-rule:nonzero;fill:rgb(100%,100%,100%);fill-opacity:1;" d="M 19.375 4.0625 C 19.375 3.542969 18.957031 3.125 18.4375 3.125 L 1.5625 3.125 C 1.042969 3.125 0.625 3.542969 0.625 4.0625 L 0.625 5 L 19.375 5 Z M 18.75 0.9375 C 18.75 0.417969 18.332031 0 17.8125 0 L 2.1875 0 C 1.667969 0 1.25 0.417969 1.25 0.9375 L 1.25 1.875 L 18.75 1.875 Z M 10 12.722656 C 9.351562 12.722656 8.828125 13.109375 8.832031 13.582031 C 8.839844 14.058594 9.359375 14.433594 10 14.433594 C 10.640625 14.433594 11.160156 14.054688 11.167969 13.582031 C 11.171875 13.113281 10.648438 12.722656 10 12.722656 Z M 18.75 6.25 L 1.25 6.25 C 0.898438 6.25 0.5625 6.398438 0.328125 6.65625 C 0.0898438 6.917969 -0.0273438 7.261719 0.00390625 7.613281 L 1.027344 18.863281 C 1.085938 19.507812 1.625 20 2.273438 20 L 17.726562 20 C 18.375 20 18.914062 19.507812 18.972656 18.863281 L 19.996094 7.613281 C 20.027344 7.261719 19.910156 6.917969 19.671875 6.65625 C 19.4375 6.398438 19.101562 6.25 18.75 6.25 Z M 10 18.472656 C 6.316406 18.472656 3.1875 16.34375 3 13.582031 C 2.800781 10.667969 5.929688 8.179688 10 8.179688 C 14.070312 8.179688 17.199219 10.667969 17 13.582031 C 16.8125 16.34375 13.683594 18.472656 10 18.472656 Z M 10 18.472656 "/>
</g>
</svg>
