<?xml version="1.0" encoding="UTF-8"?>
<svg xmlns="http://www.w3.org/2000/svg" xmlns:xlink="http://www.w3.org/1999/xlink" width="20px" height="20px" viewBox="0 0 20 20" version="1.1">
<g id="surface1">
<path style=" stroke:none;fill-rule:nonzero;fill:rgb(100%,100%,100%);fill-opacity:1;" d="M 11.308594 2.363281 C 10.378906 3.296875 9.960938 4.535156 10.019531 5.753906 L 14.246094 9.976562 C 15.464844 10.039062 16.703125 9.621094 17.636719 8.6875 L 17.722656 8.605469 L 11.394531 2.277344 Z M 0.261719 16.53125 C -0.101562 16.941406 -0.0859375 17.570312 0.304688 17.960938 L 2.039062 19.691406 C 2.429688 20.082031 3.054688 20.101562 3.46875 19.738281 L 8.75 15.074219 L 8.75 19.375 C 8.75 19.71875 9.03125 20 9.375 20 L 10.625 20 C 10.96875 20 11.25 19.71875 11.25 19.375 L 11.25 12.867188 L 13.4375 10.9375 L 9.0625 6.5625 Z M 18.691406 1.308594 C 16.941406 -0.4375 14.109375 -0.4375 12.363281 1.308594 L 12.277344 1.394531 L 18.605469 7.71875 L 18.691406 7.636719 C 20.4375 5.890625 20.4375 3.058594 18.691406 1.308594 Z M 18.691406 1.308594 "/>
</g>
</svg>
