<?xml version="1.0" encoding="UTF-8"?>
<svg xmlns="http://www.w3.org/2000/svg" xmlns:xlink="http://www.w3.org/1999/xlink" width="20px" height="20px" viewBox="0 0 20 20" version="1.1">
<g id="surface1">
<path style=" stroke:none;fill-rule:nonzero;fill:#00cccc;fill-opacity:1;" d="M 14.519531 9.296875 L 7.644531 5.117188 C 7.027344 4.773438 6.25 5.214844 6.25 5.9375 L 6.25 14.0625 C 6.25 14.78125 7.023438 15.226562 7.644531 14.882812 L 14.519531 10.9375 C 15.160156 10.582031 15.160156 9.65625 14.519531 9.296875 Z M 19.6875 10 C 19.6875 4.648438 15.351562 0.3125 10 0.3125 C 4.648438 0.3125 0.3125 4.648438 0.3125 10 C 0.3125 15.351562 4.648438 19.6875 10 19.6875 C 15.351562 19.6875 19.6875 15.351562 19.6875 10 Z M 2.1875 10 C 2.1875 5.683594 5.683594 2.1875 10 2.1875 C 14.316406 2.1875 17.8125 5.683594 17.8125 10 C 17.8125 14.316406 14.316406 17.8125 10 17.8125 C 5.683594 17.8125 2.1875 14.316406 2.1875 10 Z M 2.1875 10 "/>
</g>
</svg>
