<?xml version="1.0" encoding="UTF-8"?>
<svg xmlns="http://www.w3.org/2000/svg" xmlns:xlink="http://www.w3.org/1999/xlink" width="20px" height="16px" viewBox="0 0 20 16" version="1.1">
<g id="surface1">
<path style=" stroke:none;fill-rule:nonzero;fill:rgb(100%,100%,100%);fill-opacity:1;" d="M 16.800781 7.082031 C 16.929688 6.746094 17 6.382812 17 6 C 17 4.34375 15.65625 3 14 3 C 13.382812 3 12.808594 3.1875 12.335938 3.507812 C 11.46875 2.007812 9.851562 1 8 1 C 5.238281 1 3 3.238281 3 6 C 3 6.085938 3.003906 6.167969 3.007812 6.253906 C 1.257812 6.867188 0 8.539062 0 10.5 C 0 12.984375 2.015625 15 4.5 15 L 16 15 C 18.210938 15 20 13.210938 20 11 C 20 9.066406 18.625 7.449219 16.800781 7.082031 Z M 12.429688 9.988281 L 9.53125 12.882812 C 9.238281 13.179688 8.761719 13.179688 8.472656 12.882812 L 5.574219 9.988281 C 5.28125 9.695312 5.28125 9.21875 5.574219 8.929688 L 5.914062 8.589844 C 6.210938 8.289062 6.699219 8.300781 6.992188 8.605469 L 8.003906 9.683594 L 8.003906 5.75 C 8.003906 5.335938 8.335938 5 8.753906 5 L 9.253906 5 C 9.667969 5 10.003906 5.335938 10.003906 5.75 L 10.003906 9.683594 L 11.015625 8.605469 C 11.304688 8.296875 11.792969 8.289062 12.09375 8.589844 L 12.429688 8.929688 C 12.71875 9.21875 12.71875 9.695312 12.429688 9.988281 Z M 12.429688 9.988281 "/>
</g>
</svg>
