<?xml version="1.0" encoding="UTF-8"?>
<svg xmlns="http://www.w3.org/2000/svg" xmlns:xlink="http://www.w3.org/1999/xlink" width="20px" height="20px" viewBox="0 0 20 20" version="1.1">
<g id="surface1">
<path style=" stroke:none;fill-rule:nonzero;fill:rgb(100%,100%,100%);fill-opacity:1;" d="M 17.5 -0.0390625 L 2.5 -0.0390625 C 1.121094 -0.0390625 0 1.082031 0 2.460938 L 0 13.710938 C 0 15.089844 1.121094 16.210938 2.5 16.210938 L 6.25 16.210938 L 6.25 19.492188 C 6.25 19.667969 6.347656 19.832031 6.507812 19.910156 C 6.664062 19.992188 6.851562 19.976562 6.996094 19.871094 L 11.875 16.210938 L 17.5 16.210938 C 18.878906 16.210938 20 15.089844 20 13.710938 L 20 2.460938 C 20 1.082031 18.878906 -0.0390625 17.5 -0.0390625 Z M 13.75 9.960938 C 13.75 10.652344 12.910156 11.210938 11.875 11.210938 C 10.839844 11.210938 10 10.652344 10 9.960938 C 10 9.269531 10.839844 8.710938 11.875 8.710938 C 12.085938 8.710938 12.296875 8.738281 12.5 8.789062 L 12.5 5.804688 L 8.75 7.273438 L 8.75 11.210938 C 8.75 11.902344 7.910156 12.460938 6.875 12.460938 C 5.839844 12.460938 5 11.902344 5 11.210938 C 5 10.519531 5.839844 9.960938 6.875 9.960938 C 7.085938 9.960938 7.296875 9.988281 7.5 10.039062 L 7.5 5.554688 C 7.5 5.285156 7.675781 5.042969 7.9375 4.960938 L 12.9375 3.117188 C 13.125 3.054688 13.332031 3.089844 13.496094 3.207031 C 13.65625 3.324219 13.75 3.511719 13.75 3.710938 Z M 13.75 9.960938 "/>
</g>
</svg>
