<?xml version="1.0" encoding="UTF-8"?>
<svg xmlns="http://www.w3.org/2000/svg" xmlns:xlink="http://www.w3.org/1999/xlink" width="20px" height="16px" viewBox="0 0 20 16" version="1.1">
<g id="surface1">
<path style=" stroke:none;fill-rule:nonzero;fill:#00cccc;fill-opacity:1;" d="M 7 8.03125 C 9.210938 8.03125 11 6.242188 11 4.03125 C 11 1.820312 9.210938 0.03125 7 0.03125 C 4.789062 0.03125 3 1.820312 3 4.03125 C 3 6.242188 4.789062 8.03125 7 8.03125 Z M 9 13.53125 C 9 11.816406 10.511719 10.425781 12.578125 10.101562 C 11.835938 9.445312 10.871094 9.03125 9.800781 9.03125 L 9.277344 9.03125 C 7.832031 9.699219 6.167969 9.699219 4.722656 9.03125 L 4.199219 9.03125 C 1.878906 9.03125 0 10.910156 0 13.230469 L 0 14.53125 C 0 15.359375 0.671875 16.03125 1.5 16.03125 L 10.324219 16.03125 C 9.503906 15.398438 9 14.519531 9 13.53125 Z M 18.71875 3.074219 L 15.699219 3.964844 C 15.285156 4.09375 15 4.480469 15 4.917969 L 15 11.28125 C 14.515625 11.117188 14.011719 11.03125 13.5 11.03125 C 11.566406 11.03125 10 12.152344 10 13.53125 C 10 14.910156 11.566406 16.03125 13.5 16.03125 C 15.433594 16.03125 17 14.910156 17 13.53125 L 17 7.660156 L 19.28125 6.992188 C 19.707031 6.867188 20 6.476562 20 6.03125 L 20 4.03125 C 20 3.714844 19.851562 3.417969 19.597656 3.230469 C 19.347656 3.042969 19.019531 2.984375 18.71875 3.074219 Z M 18.71875 3.074219 "/>
</g>
</svg>
