<?xml version="1.0" encoding="UTF-8"?>
<svg xmlns="http://www.w3.org/2000/svg" xmlns:xlink="http://www.w3.org/1999/xlink" width="20px" height="20px" viewBox="0 0 20 20" version="1.1">
<g id="surface1">
<path style=" stroke:none;fill-rule:nonzero;fill:rgb(100%,100%,100%);fill-opacity:1;" d="M 0.625 10 L 10.625 10 C 10.96875 10 11.25 9.71875 11.25 9.375 L 11.25 8.125 C 11.25 7.78125 10.96875 7.5 10.625 7.5 L 0.625 7.5 C 0.28125 7.5 0 7.78125 0 8.125 L 0 9.375 C 0 9.71875 0.28125 10 0.625 10 Z M 0.625 5 L 10.625 5 C 10.96875 5 11.25 4.71875 11.25 4.375 L 11.25 3.125 C 11.25 2.78125 10.96875 2.5 10.625 2.5 L 0.625 2.5 C 0.28125 2.5 0 2.78125 0 3.125 L 0 4.375 C 0 4.71875 0.28125 5 0.625 5 Z M 5.625 12.5 L 0.625 12.5 C 0.28125 12.5 0 12.78125 0 13.125 L 0 14.375 C 0 14.71875 0.28125 15 0.625 15 L 5.625 15 C 5.96875 15 6.25 14.71875 6.25 14.375 L 6.25 13.125 C 6.25 12.78125 5.96875 12.5 5.625 12.5 Z M 18.394531 0.0507812 L 14.625 1.164062 C 14.105469 1.328125 13.75 1.8125 13.75 2.355469 L 13.75 14.0625 C 13.144531 13.855469 12.511719 13.75 11.875 13.75 C 9.457031 13.75 7.5 15.148438 7.5 16.875 C 7.5 18.601562 9.457031 20 11.875 20 C 14.292969 20 16.25 18.601562 16.25 16.875 L 16.25 5.789062 L 19.101562 4.953125 C 19.632812 4.796875 20 4.308594 20 3.753906 L 20 1.25 C 20 0.855469 19.8125 0.484375 19.5 0.25 C 19.183594 0.0117188 18.773438 -0.0585938 18.394531 0.0507812 Z M 18.394531 0.0507812 "/>
</g>
</svg>
