<?xml version="1.0" encoding="UTF-8"?>
<svg xmlns="http://www.w3.org/2000/svg" xmlns:xlink="http://www.w3.org/1999/xlink" width="20px" height="20px" viewBox="0 0 20 20" version="1.1">
<g id="surface1">
<path style=" stroke:none;fill-rule:nonzero;fill:#00cccc;fill-opacity:1;" d="M 10 1.25 C 4.476562 1.25 0 4.886719 0 9.375 C 0 11.3125 0.835938 13.085938 2.226562 14.480469 C 1.738281 16.449219 0.105469 18.203125 0.0859375 18.222656 C 0 18.3125 -0.0234375 18.449219 0.0273438 18.5625 C 0.0742188 18.675781 0.1875 18.75 0.3125 18.75 C 2.902344 18.75 4.84375 17.507812 5.804688 16.742188 C 7.144531 17.246094 8.566406 17.5 10 17.5 C 15.523438 17.5 20 13.863281 20 9.375 C 20 4.886719 15.523438 1.25 10 1.25 Z M 13.75 11.25 C 13.75 11.941406 12.910156 12.5 11.875 12.5 C 10.839844 12.5 10 11.941406 10 11.25 C 10 10.558594 10.839844 10 11.875 10 C 12.085938 10 12.296875 10.027344 12.5 10.078125 L 12.5 7.09375 L 8.75 8.5625 L 8.75 12.5 C 8.75 13.191406 7.910156 13.75 6.875 13.75 C 5.839844 13.75 5 13.191406 5 12.5 C 5 11.808594 5.839844 11.25 6.875 11.25 C 7.085938 11.25 7.296875 11.277344 7.5 11.328125 L 7.5 6.84375 C 7.5 6.574219 7.675781 6.332031 7.9375 6.25 L 12.9375 4.40625 C 13.125 4.34375 13.332031 4.378906 13.496094 4.496094 C 13.65625 4.613281 13.75 4.800781 13.75 5 Z M 13.75 11.25 "/>
</g>
</svg>
