<?xml version="1.0" encoding="UTF-8"?>
<svg xmlns="http://www.w3.org/2000/svg" xmlns:xlink="http://www.w3.org/1999/xlink" width="20px" height="16px" viewBox="0 0 20 16" version="1.1">
<g id="surface1">
<path style=" stroke:none;fill-rule:nonzero;fill:rgb(100%,100%,100%);fill-opacity:1;" d="M 16 14 L 4 14 C 3.449219 14 3 14.449219 3 15 C 3 15.550781 3.449219 16 4 16 L 16 16 C 16.550781 16 17 15.550781 17 15 C 17 14.449219 16.550781 14 16 14 Z M 7.5 10 C 8.328125 10 9 9.550781 9 9 L 9 6.347656 L 12 5.175781 L 12 7.0625 C 11.835938 7.023438 11.667969 7 11.5 7 C 10.671875 7 10 7.449219 10 8 C 10 8.550781 10.671875 9 11.5 9 C 12.328125 9 13 8.550781 13 8 L 13 3.5 C 13 3.339844 12.925781 3.191406 12.796875 3.097656 C 12.667969 3.003906 12.5 2.976562 12.351562 3.023438 L 8.351562 4.5 C 8.140625 4.566406 8 4.757812 8 4.976562 L 8 8.0625 C 7.835938 8.023438 7.667969 8 7.5 8 C 6.671875 8 6 8.449219 6 9 C 6 9.550781 6.671875 10 7.5 10 Z M 18.5 0 L 1.5 0 C 0.671875 0 0 0.671875 0 1.5 L 0 11.5 C 0 12.328125 0.671875 13 1.5 13 L 18.5 13 C 19.328125 13 20 12.328125 20 11.5 L 20 1.5 C 20 0.671875 19.328125 0 18.5 0 Z M 18 11 L 2 11 L 2 2 L 18 2 Z M 18 11 "/>
</g>
</svg>
